<?xml version="1.0" encoding="UTF-8" standalone="no" ?>
<!DOCTYPE svg PUBLIC "-//W3C//DTD SVG 1.1//EN" "http://www.w3.org/Graphics/SVG/1.1/DTD/svg11.dtd">
<svg xmlns="http://www.w3.org/2000/svg" xmlns:xlink="http://www.w3.org/1999/xlink" version="1.1" width="1080" height="1080" viewBox="0 0 1080 1080" xml:space="preserve">
<desc>Created with Fabric.js 5.2.4</desc>
<defs>
</defs>
<g transform="matrix(1 0 0 1 540 540)" id="9c5e8f96-1eed-4c3e-b0e1-9dafcbf2daeb"  >
<rect style="stroke: none; stroke-width: 1; stroke-dasharray: none; stroke-linecap: butt; stroke-dashoffset: 0; stroke-linejoin: miter; stroke-miterlimit: 4; fill: rgb(0,0,0); fill-rule: nonzero; opacity: 1;" vector-effect="non-scaling-stroke"  x="-540" y="-540" rx="0" ry="0" width="1080" height="1080" />
</g>
<g transform="matrix(1 0 0 1 540 540)" id="fc5dc433-111a-4288-a74c-97469476d439"  >
</g>
<g transform="matrix(0.53 0 0 0.53 540 520.93)" id="Layer"  >
<path style="stroke: rgb(0,0,0); stroke-width: 0; stroke-dasharray: none; stroke-linecap: butt; stroke-dashoffset: 0; stroke-linejoin: miter; stroke-miterlimit: 4; fill: rgb(255,255,255); fill-rule: nonzero; opacity: 1;" vector-effect="non-scaling-stroke"  transform=" translate(-813.41, -282.31)" d="M 93.6 403.24 C 100.47 421.48 109.99 437.07 122.15 450.02 C 134.32 462.98 148.73 472.89 165.38 479.76 C 182.04 486.63 200.15 490.07 219.72 490.07 C 238.75 490.07 256.6 486.5 273.26 479.36 C 289.92 472.22 304.46 462.18 316.88 449.23 C 329.31 436.28 338.96 420.81 345.84 402.84 C 352.71 384.87 356.15 364.78 356.15 342.57 L 356.15 0 L 439.43 0 L 439.43 555.09 L 356.94 555.09 L 356.94 503.55 C 338.43 523.11 316.62 538.17 291.5 548.75 C 266.38 559.32 239.28 564.61 210.2 564.61 C 180.58 564.61 152.96 559.45 127.31 549.14 C 101.66 538.84 79.45 524.17 60.68 505.13 C 41.91 486.1 27.1 463.24 16.26 436.54 C 5.42 409.84 0 380.11 0 347.33 L 0 0 L 83.29 0 L 83.29 342.57 C 83.29 364.78 86.72 385 93.6 403.24 Z M 583 0 L 583 202.21 C 601.5 183.71 622.92 169.04 647.25 158.2 C 671.57 147.36 698.01 141.94 726.57 141.94 C 756.18 141.94 783.94 147.49 809.85 158.6 C 835.76 169.7 858.23 184.77 877.27 203.8 C 896.31 222.83 911.38 245.3 922.49 271.2 C 933.59 297.11 939.14 324.6 939.14 353.67 C 939.14 382.75 933.59 410.11 922.49 435.75 C 911.38 461.39 896.31 483.72 877.27 502.75 C 858.23 521.79 835.76 536.85 809.85 547.96 C 783.94 559.06 756.18 564.61 726.57 564.61 C 698.01 564.61 671.44 559.19 646.85 548.35 C 622.26 537.51 600.71 522.84 582.2 504.34 L 582.2 555.09 L 502.88 555.09 L 502.88 0 L 583 0 Z M 592.12 408.39 C 599.26 425.31 609.17 440.11 621.86 452.8 C 634.55 465.49 649.36 475.53 666.28 482.93 C 683.2 490.33 701.45 494.03 721.01 494.03 C 740.05 494.03 758.03 490.33 774.95 482.93 C 791.87 475.53 806.54 465.49 818.97 452.8 C 831.4 440.11 841.32 425.31 848.72 408.39 C 856.12 391.47 859.82 373.24 859.82 353.67 C 859.82 334.11 856.12 315.74 848.72 298.56 C 841.32 281.38 831.4 266.44 818.97 253.76 C 806.55 241.07 791.87 231.16 774.95 224.02 C 758.03 216.88 740.05 213.31 721.01 213.31 C 701.98 213.31 684 216.88 667.08 224.02 C 650.16 231.16 635.35 241.07 622.66 253.76 C 609.97 266.44 599.92 281.38 592.52 298.56 C 585.11 315.74 581.41 334.11 581.41 353.67 C 581.41 373.24 584.98 391.47 592.12 408.39 Z M 984.35 272 C 994.92 246.62 1009.47 224.29 1027.97 204.99 C 1046.48 185.69 1068.43 170.49 1093.81 159.39 C 1119.19 148.29 1146.69 142.74 1176.3 142.74 C 1205.39 142.74 1232.36 148.03 1257.21 158.6 C 1282.06 169.17 1303.48 183.84 1321.46 202.61 C 1339.44 221.38 1353.45 243.58 1363.5 269.22 C 1373.54 294.86 1378.57 322.75 1378.57 352.88 L 1378.57 379.05 L 1049.39 379.05 C 1052.04 395.44 1057.32 410.64 1065.25 424.65 C 1073.19 438.66 1083.1 450.82 1095 461.13 C 1106.9 471.44 1120.38 479.5 1135.45 485.31 C 1150.52 491.13 1166.52 494.04 1183.44 494.04 C 1231.56 494.04 1270.43 474.21 1300.04 434.56 L 1357.95 477.38 C 1337.85 504.34 1313 525.49 1283.39 540.82 C 1253.77 556.15 1220.46 563.82 1183.44 563.82 C 1153.3 563.82 1125.14 558.53 1098.97 547.96 C 1072.79 537.39 1050.05 522.58 1030.75 503.55 C 1011.45 484.52 996.25 462.18 985.14 436.54 C 974.04 410.9 968.49 383.01 968.49 352.88 C 968.48 324.33 973.77 297.37 984.35 272 Z M 1095.79 240.67 C 1073.32 259.44 1058.38 284.42 1050.98 315.61 L 1297.66 315.61 C 1290.79 284.42 1276.11 259.44 1253.64 240.67 C 1231.17 221.91 1204.86 212.52 1174.72 212.52 C 1144.57 212.52 1118.27 221.91 1095.79 240.67 Z M 1528.48 249.79 C 1511.56 268.29 1503.1 293.41 1503.1 325.13 L 1503.1 555.09 L 1422.98 555.09 L 1422.98 150.67 L 1502.3 150.67 L 1502.3 200.63 C 1512.35 184.24 1525.44 171.29 1541.56 161.77 C 1557.69 152.25 1576.86 147.49 1599.07 147.49 L 1626.83 147.49 L 1626.83 222.04 L 1593.52 222.04 C 1567.08 222.04 1545.4 231.29 1528.48 249.79 Z" stroke-linecap="round" />
</g>
</svg>